<svg width="27" height="27" viewBox="0 0 27 27" fill="none" xmlns="http://www.w3.org/2000/svg">
    <path
        d="M13.5 26C6.64346 26 1 20.3565 1 13.5C1 6.64346 6.64346 1 13.5 1C20.3565 1 26 6.64346 26 13.5C26 14.5318 26 15.5603 26 16.592C26 18.326 24.543 19.75 22.7761 19.75C21.0092 19.75 19.5555 18.3227 19.5555 16.592V13.3418M15.8161 7.90606C18.9059 9.18589 20.3731 12.7282 19.0933 15.818C17.8134 18.9078 14.2712 20.375 11.1814 19.0952C8.09158 17.8154 6.62432 14.2731 7.90416 11.1833C9.18399 8.09349 12.7263 6.62623 15.8161 7.90606Z"
        stroke="#72ACC5" stroke-width="2" stroke-miterlimit="10" stroke-linecap="round" />
</svg>