<svg width="10" height="20" viewBox="0 0 10 20" fill="none" xmlns="http://www.w3.org/2000/svg">
<path d="M2.2367 15.039C2.2367 13.7007 2.20041 12.3623 2.25225 11.024C2.28076 10.2927 2.14857 9.82952 1.22584 9.98553C0.207213 10.1562 -0.0753097 9.67594 0.0335516 8.81054C0.0802064 8.44976 0.0905741 8.07434 0.0335516 7.71843C-0.121965 6.72383 0.253868 6.26798 1.35544 6.45812C2.13302 6.5922 2.30927 6.22166 2.24447 5.57322C2.19522 5.09055 2.23411 4.60056 2.23411 4.11301C2.23411 1.43637 3.62079 0.0956137 6.48229 0.00541721C6.87108 -0.00677151 7.25728 0.00541721 7.64607 0.00541721C9.96066 0.00785495 9.8855 0.0127302 9.99436 2.17988C10.054 3.33537 9.64704 3.62059 8.48845 3.55965C6.85294 3.47189 5.99241 4.78339 6.65076 6.19728C6.87626 6.68483 7.32726 6.43862 7.66162 6.44593C9.86217 6.49956 9.78182 6.48737 9.77922 8.55946C9.77922 9.76614 9.28935 10.1708 8.09966 9.9831C6.95143 9.8027 6.56004 10.1854 6.6067 11.3336C6.71038 13.8445 6.58337 16.3627 6.66632 18.8735C6.69742 19.8364 6.34751 20.0071 5.42737 19.9998C2.23152 19.9803 2.23152 20.0095 2.23152 16.9819C2.23152 16.3334 2.23152 15.685 2.23152 15.0341L2.2367 15.039Z" fill="white"/>
</svg>
