<svg width="50" height="50" viewBox="0 0 50 50" fill="none" xmlns="http://www.w3.org/2000/svg">
<path d="M37.5 8.33333C37.5 6.1232 36.622 4.00358 35.0592 2.44078C33.4964 0.877974 31.3768 0 29.1667 0H8.33333C6.1232 0 4.00358 0.877974 2.44078 2.44078C0.877974 4.00358 0 6.1232 0 8.33333V29.1667C0 31.3768 0.877974 33.4964 2.44078 35.0592C4.00358 36.622 6.1232 37.5 8.33333 37.5V20.8333C8.33333 17.5181 9.65029 14.3387 11.9945 11.9945C14.3387 9.65029 17.5181 8.33333 20.8333 8.33333H37.5Z" fill="#72ACC5"/>
<path d="M41.6667 13.5C43.6116 13.5 45.4768 14.2726 46.8521 15.6479C48.2274 17.0231 49 18.8884 49 20.8333V41.6667C49 43.6116 48.2274 45.4768 46.8521 46.8521C45.4768 48.2274 43.6116 49 41.6667 49H20.8333C18.8884 49 17.0231 48.2274 15.6479 46.8521C14.2726 45.4768 13.5 43.6116 13.5 41.6667V20.8333C13.5 18.8884 14.2726 17.0231 15.6479 15.6479C17.0231 14.2726 18.8884 13.5 20.8333 13.5H41.6667Z" stroke="white" stroke-width="2"/>
</svg>
