<svg width="51" height="52" viewBox="0 0 51 52" fill="none" xmlns="http://www.w3.org/2000/svg">
<path fill-rule="evenodd" clip-rule="evenodd" d="M17.8549 8.14343C18.2429 8.14351 18.6203 8.26998 18.93 8.5037C19.2397 8.73741 19.4649 9.06566 19.5715 9.43878L21.5071 16.2155C21.9238 17.675 22.7057 19.0041 23.7788 20.0773C24.8519 21.1506 26.1808 21.9325 27.6401 22.3493L34.4159 24.2852C34.7887 24.392 35.1166 24.6173 35.3501 24.9271C35.5835 25.2368 35.7098 25.6142 35.7098 26.002C35.7098 26.3899 35.5835 26.7672 35.3501 27.077C35.1166 27.3867 34.7887 27.612 34.4159 27.7188L27.6401 29.6547C26.1808 30.0715 24.8519 30.8535 23.7788 31.9267C22.7057 33 21.9238 34.3291 21.5071 35.7885L19.5715 42.5653C19.4647 42.9381 19.2394 43.2661 18.9297 43.4996C18.62 43.733 18.2427 43.8593 17.8549 43.8593C17.4671 43.8593 17.0898 43.733 16.7801 43.4996C16.4704 43.2661 16.2451 42.9381 16.1383 42.5653L14.2027 35.7885C13.7859 34.3291 13.0041 33 11.931 31.9267C10.8579 30.8535 9.52895 30.0715 8.0697 29.6547L1.29388 27.7188C0.921055 27.612 0.593137 27.3867 0.3597 27.077C0.126263 26.7672 0 26.3899 0 26.002C0 25.6142 0.126263 25.2368 0.3597 24.9271C0.593137 24.6173 0.921055 24.392 1.29388 24.2852L8.0697 22.3493C9.52895 21.9325 10.8579 21.1506 11.931 20.0773C13.0041 19.0041 13.7859 17.675 14.2027 16.2155L16.1383 9.43878C16.2449 9.06566 16.4701 8.73741 16.7798 8.5037C17.0895 8.26998 17.4669 8.14351 17.8549 8.14343Z" fill="#72ACC5"/>
<path d="M41.0488 17.5769L40.3847 20.2308L39.7205 17.5769C39.3404 16.0554 38.5539 14.6657 37.4452 13.5565C36.3364 12.4473 34.9471 11.6602 33.4257 11.2795L30.7693 10.6154L33.4257 9.95128C34.9471 9.57053 36.3364 8.78349 37.4452 7.67428C38.5539 6.56508 39.3404 5.17541 39.7205 3.65385L40.3847 1L41.0488 3.65385C41.4291 5.17573 42.216 6.56561 43.3252 7.67484C44.4344 8.78408 45.8243 9.57094 47.3462 9.95128L50 10.6154L47.3462 11.2795C45.8243 11.6598 44.4344 12.4467 43.3252 13.5559C42.216 14.6652 41.4291 16.055 41.0488 17.5769ZM37.5488 47.9667L36.5385 51L35.5282 47.9667C35.245 47.117 34.7679 46.3449 34.1345 45.7116C33.5012 45.0783 32.7292 44.6012 31.8795 44.3179L28.8462 43.3077L31.8795 42.2974C32.7292 42.0142 33.5012 41.537 34.1345 40.9037C34.7679 40.2704 35.245 39.4984 35.5282 38.6487L36.5385 35.6154L37.5488 38.6487C37.832 39.4984 38.3091 40.2704 38.9424 40.9037C39.5758 41.537 40.3478 42.0142 41.1975 42.2974L44.2308 43.3077L41.1975 44.3179C40.3478 44.6012 39.5758 45.0783 38.9424 45.7116C38.3091 46.3449 37.832 47.117 37.5488 47.9667Z" stroke="white" stroke-width="2" stroke-linecap="round" stroke-linejoin="round"/>
</svg>
