<svg width="24" height="24" viewBox="0 0 24 24" fill="none" xmlns="http://www.w3.org/2000/svg">
<path d="M23.2004 7.69225C23.1558 3.77293 20.3631 0.891954 16.4544 0.797332C13.4906 0.722631 10.5219 0.717651 7.55807 0.782392C3.56253 0.867053 0.792194 3.75799 0.782273 7.74952C0.774833 10.6853 0.767392 13.6185 0.782273 16.5543C0.802114 20.2645 3.7411 23.2177 7.4167 23.2426C8.89983 23.2525 10.383 23.245 11.8661 23.245H16.1841C20.2689 23.2401 23.1682 20.3616 23.2004 16.2356C23.2252 13.3895 23.2327 10.5409 23.2004 7.69474V7.69225ZM20.9187 16.9303C20.7302 19.393 18.818 21.0613 16.3626 21.0912C13.441 21.1285 10.5219 21.126 7.59775 21.0887C4.94646 21.0563 2.99457 19.1041 2.95489 16.4273C2.91273 13.4965 2.90529 10.5633 2.95241 7.63249C2.99457 4.91835 4.88198 3.04335 7.58287 2.97114C9.066 2.9313 10.5467 2.96367 12.0298 2.96616C13.5129 2.96616 14.9961 2.92632 16.4767 2.97363C18.8998 3.0558 20.7252 4.66436 20.9137 7.09713C21.1692 10.3666 21.1667 13.6584 20.9187 16.9278V16.9303Z" fill="white"/>
<path d="M12.0074 6.64392C8.85512 6.64392 6.47912 9.01942 6.48904 12.1718C6.49649 15.2993 8.89976 17.7121 12.0173 17.7221C15.1225 17.7296 17.5332 15.3018 17.5307 12.1693C17.5282 9.01693 15.1547 6.64392 12.0074 6.64392ZM11.9181 15.6554C9.96623 15.6031 8.50293 14.0493 8.54758 12.0722C8.58974 10.1424 10.2142 8.58117 12.1066 8.65587C14.0188 8.73306 15.5912 10.3939 15.5168 12.2565C15.4375 14.1937 13.8353 15.7052 11.9181 15.6554Z" fill="white"/>
<path d="M19.1876 6.23306C19.1479 7.08466 18.6742 7.5727 17.8781 7.59511C17.0844 7.61504 16.5264 7.14442 16.4991 6.3227C16.4669 5.43625 17.0299 4.91085 17.8731 4.90089C18.6841 4.89093 19.1206 5.43376 19.1876 6.23306Z" fill="white"/>
</svg>
