<svg width="19" height="18" viewBox="0 0 19 18" fill="none" xmlns="http://www.w3.org/2000/svg">
<path d="M10.5611 7.53975C12.1699 5.69396 13.8614 5.5036 15.6672 6.1542C17.4463 6.79758 18.1278 8.28673 18.2081 10.0289C18.3055 12.147 18.2617 14.2723 18.3128 16.3928C18.3274 17.041 18.1497 17.2891 17.4293 17.306C14.5039 17.3735 14.5039 17.4 14.5039 14.4891C14.5039 13.3663 14.5428 12.2434 14.4893 11.1229C14.4163 9.58312 13.7324 8.8024 12.5763 8.82167C11.3545 8.84336 10.622 9.71565 10.6098 11.2096C10.5976 12.8916 10.5757 14.5759 10.622 16.2578C10.6414 16.9976 10.4832 17.306 9.64115 17.3084C6.79604 17.3205 6.79604 17.3566 6.79604 14.547C6.79604 12.1422 6.85688 9.73493 6.76927 7.33493C6.73033 6.28673 7.07836 5.98794 8.05431 6.12529C8.48996 6.18553 8.94752 6.16866 9.38804 6.1277C10.2155 6.05059 10.8459 6.15902 10.5611 7.53975Z" fill="white"/>
<path d="M0.957408 11.6482C0.957408 10.0892 0.981745 8.52774 0.945238 6.96871C0.930636 6.3663 1.08883 6.1422 1.74353 6.11328C4.77117 5.97835 4.76874 5.95666 4.76874 8.95184C4.76874 11.4314 4.74927 13.9109 4.78091 16.3904C4.78821 17.0386 4.63731 17.2868 3.92178 17.3085C0.957408 17.3952 0.957408 17.4217 0.957408 14.5277C0.957408 13.5687 0.957408 12.6073 0.957408 11.6482Z" fill="white"/>
<path d="M4.80774 2.70843C4.80531 3.83614 3.83665 4.75903 2.6952 4.72288C1.60729 4.68915 0.706787 3.7759 0.706787 2.70361C0.706787 1.65059 1.64623 0.686739 2.69764 0.662642C3.81475 0.636136 4.81261 1.6024 4.81017 2.70602L4.80774 2.70843Z" fill="white"/>
</svg>
