<svg width="26" height="27" viewBox="0 0 26 27" fill="none" xmlns="http://www.w3.org/2000/svg">
<path d="M7.61234 12.1984C8.1124 11.6723 8.61246 11.1463 9.11252 10.6203C7.76171 8.79213 6.4109 6.96724 5.05684 5.1391C3.8554 5.39562 2.00128 5.98011 1.30314 7.4673C-1.31081 13.0297 13.678 28.2717 19.4742 25.713C20.9419 25.0636 21.5913 23.3751 21.877 22.4106C20.0749 20.8585 18.2727 19.3064 16.4705 17.7542C15.8438 18.2803 15.2204 18.8063 14.5937 19.3324" stroke="#72ACC5" stroke-width="2" stroke-linecap="round" stroke-linejoin="round"/>
<path d="M13.6194 7.04842C13.8272 7.00296 16.1099 6.5581 17.8991 8.22063C19.5941 9.79874 19.4253 11.9516 19.3993 12.1984" stroke="#72ACC5" stroke-width="2" stroke-linecap="round" stroke-linejoin="round"/>
<path d="M13.5449 1.01198C14.1944 0.976259 18.4221 0.823643 21.7277 4.16495C24.9262 7.39911 24.832 11.4515 24.806 12.1237" stroke="#72ACC5" stroke-width="2" stroke-linecap="round" stroke-linejoin="round"/>
</svg>
