<svg width="46" height="52" viewBox="0 0 46 52" fill="none" xmlns="http://www.w3.org/2000/svg">
<path d="M26.6098 5.87802C29.6147 5.87802 32.5927 5.99022 35.5415 6.21461C37.8778 6.38719 40.0742 7.39338 41.7307 9.04985C43.3872 10.7063 44.3934 12.9028 44.5659 15.239C44.7902 18.212 44.9023 19.9718 44.9023 22.9512M26.6098 5.87802L31.4878 1.00003M26.6098 5.87802L31.4878 10.756" stroke="white" stroke-width="2" stroke-linecap="round" stroke-linejoin="round"/>
<path d="M1 23.5609C1 22.1054 1.57818 20.7096 2.60735 19.6804C3.63651 18.6512 5.03236 18.0731 6.48782 18.0731H28.4391C29.8946 18.0731 31.2904 18.6512 32.3196 19.6804C33.3487 20.7096 33.9269 22.1054 33.9269 23.5609V45.5122C33.9269 46.9676 33.3487 48.3635 32.3196 49.3926C31.2904 50.4218 29.8946 51 28.4391 51H6.48782C5.03236 51 3.63651 50.4218 2.60735 49.3926C1.57818 48.3635 1 46.9676 1 45.5122V23.5609Z" fill="#72ACC5" stroke="#72ACC5" stroke-width="2" stroke-linecap="round" stroke-linejoin="round"/>
</svg>
