<svg width="52" height="52" viewBox="0 0 52 52" fill="none" xmlns="http://www.w3.org/2000/svg">
<path d="M12.3636 1H7.81818C6.00989 1 4.27566 1.71834 2.997 2.997C1.71834 4.27566 1 6.00989 1 7.81818V12.3636M39.6364 1H44.1818C45.9901 1 47.7243 1.71834 49.003 2.997C50.2817 4.27566 51 6.00989 51 7.81818V12.3636M51 39.6364V44.1818C51 45.9901 50.2817 47.7243 49.003 49.003C47.7243 50.2817 45.9901 51 44.1818 51H39.6364M12.3636 51H7.81818C6.00989 51 4.27566 50.2817 2.997 49.003C1.71834 47.7243 1 45.9901 1 44.1818V39.6364" stroke="white" stroke-width="2" stroke-linecap="round" stroke-linejoin="round"/>
</svg>
