<svg width="20" height="17" viewBox="0 0 20 17" fill="none" xmlns="http://www.w3.org/2000/svg">
<path d="M18.5643 2.31383C18.9251 2.50461 19.1767 2.42984 19.4054 2.3293C19.629 2.23133 19.8069 2.21328 19.9466 2.435C20.1092 2.69539 19.8602 2.86039 19.7332 2.94031C18.2111 3.88131 18.2569 5.45137 18.0739 6.96471C17.3142 13.2269 12.1458 17.4446 5.92808 16.9625C3.87752 16.8027 1.95655 16.2793 0 15.1373C2.10138 14.8975 4.08588 14.7093 5.91284 13.3713C4.55088 12.9768 3.37949 12.4767 2.65023 11.3217C2.2386 10.672 1.90065 10.0404 3.50654 10.1873C2.0963 9.45256 1.28319 8.60953 0.955405 7.39525C0.820733 6.8951 0.233769 6.21706 1.37721 5.97472C1.86507 5.8716 1.42803 5.41012 1.30098 5.15231C0.60221 3.72662 0.487866 2.31641 1.32639 0.748929C3.46842 3.11562 6.00431 4.51552 9.0052 5.06465C9.64806 5.18325 9.88438 5.22192 9.85642 4.40466C9.79544 2.60773 10.6721 1.26455 12.2424 0.49112C13.7594 -0.259105 15.3246 -0.176606 16.651 0.924239C17.3726 1.52236 17.8706 1.05572 18.4881 0.911348C18.8337 0.831428 19.2351 0.339012 19.5147 0.736038C19.8018 1.14338 19.3165 1.494 19.0725 1.81884C18.948 1.98383 18.7752 2.11016 18.5618 2.31125L18.5643 2.31383Z" fill="white"/>
</svg>
