<svg width="655" height="122" viewBox="0 0 655 122" fill="none" xmlns="http://www.w3.org/2000/svg">
<path d="M41.8 97.6C20.8 97.6 5.2 82.5 5.2 62C5.2 41.5 20.8 26.4 41.9 26.4C52.1 26.4 61.3 29.8 67.5 36.6L62.8 41.3C57.1 35.5 50.1 33 42.1 33C25.2 33 12.5 45.4 12.5 62C12.5 78.6 25.2 91 42.1 91C50.1 91 57.1 88.5 62.8 82.6L67.5 87.3C61.3 94.1 52.1 97.6 41.8 97.6ZM88.575 54.7C91.875 47.7 98.575 44 108.275 44V50.9C107.675 50.9 107.075 50.8 106.575 50.8C95.575 50.8 88.875 57.8 88.875 70.2V97H81.775V44.4H88.575V54.7ZM142.142 97.5C126.742 97.5 115.342 86.3 115.342 70.7C115.342 55.1 126.742 44 142.142 44C157.542 44 168.842 55.1 168.842 70.7C168.842 86.3 157.542 97.5 142.142 97.5ZM142.142 91.2C153.342 91.2 161.642 83 161.642 70.7C161.642 58.4 153.342 50.2 142.142 50.2C130.942 50.2 122.542 58.4 122.542 70.7C122.542 83 130.942 91.2 142.142 91.2ZM210.438 44C225.438 44 236.638 54.8 236.638 70.7C236.638 86.7 225.438 97.5 210.438 97.5C202.038 97.5 194.838 93.9 190.438 87.1V116.4H183.338V44.4H190.138V54.8C194.438 47.8 201.738 44 210.438 44ZM209.938 91.2C221.038 91.2 229.538 83 229.538 70.7C229.538 58.5 221.038 50.2 209.938 50.2C198.738 50.2 190.338 58.5 190.338 70.7C190.338 83 198.738 91.2 209.938 91.2ZM354.827 88.7L357.327 93.8C354.527 96.3 350.327 97.5 346.227 97.5C336.327 97.5 330.827 91.9 330.827 82.2V50.4H321.427V44.4H330.827V32.9H337.927V44.4H353.927V50.4H337.927V81.8C337.927 88 341.127 91.4 347.027 91.4C349.927 91.4 352.827 90.5 354.827 88.7ZM414.296 70.7C414.296 71.3 414.196 72.1 414.196 72.9H370.196C370.996 83.9 379.396 91.2 390.896 91.2C397.296 91.2 402.996 88.9 406.996 84.3L410.996 88.9C406.296 94.5 398.996 97.5 390.696 97.5C374.296 97.5 363.096 86.3 363.096 70.7C363.096 55.1 373.996 44 388.796 44C403.596 44 414.296 54.9 414.296 70.7ZM388.796 50.1C378.596 50.1 371.096 57.3 370.196 67.6H407.496C406.596 57.3 399.096 50.1 388.796 50.1ZM455.548 44C468.348 44 477.148 51.4 477.148 66.5V97H470.048V67.2C470.048 56.1 464.248 50.4 454.248 50.4C442.948 50.4 435.848 57.4 435.848 69.4V97H428.748V44.4H435.548V54.1C439.348 47.7 446.448 44 455.548 44ZM537.519 22.8H544.619V97H537.819V86.6C533.519 93.7 526.219 97.5 517.519 97.5C502.519 97.5 491.319 86.6 491.319 70.7C491.319 54.8 502.519 44 517.519 44C525.919 44 533.119 47.6 537.519 54.4V22.8ZM518.119 91.2C529.219 91.2 537.619 83 537.619 70.7C537.619 58.4 529.219 50.2 518.119 50.2C506.919 50.2 498.519 58.4 498.519 70.7C498.519 83 506.919 91.2 518.119 91.2ZM610.292 70.7C610.292 71.3 610.192 72.1 610.192 72.9H566.192C566.992 83.9 575.392 91.2 586.892 91.2C593.292 91.2 598.992 88.9 602.992 84.3L606.992 88.9C602.292 94.5 594.992 97.5 586.692 97.5C570.292 97.5 559.092 86.3 559.092 70.7C559.092 55.1 569.992 44 584.792 44C599.592 44 610.292 54.9 610.292 70.7ZM584.792 50.1C574.592 50.1 567.092 57.3 566.192 67.6H603.492C602.592 57.3 595.092 50.1 584.792 50.1ZM631.544 54.7C634.844 47.7 641.544 44 651.244 44V50.9C650.644 50.9 650.044 50.8 649.544 50.8C638.544 50.8 631.844 57.8 631.844 70.2V97H624.744V44.4H631.544V54.7Z" fill="white"/>
<path d="M290 27L281.5 39L286.5 47L300.5 27H290Z" fill="#72ACC5"/>
<path d="M251 27H239.5L264 61.5L238 97H248.5L275 61L251 27Z" fill="#72ACC5"/>
<path d="M290.5 97C287.667 92.8333 281.8 84.3 281 83.5L286.5 75.5L301.5 97H290.5Z" fill="#72ACC5"/>
<path d="M287.261 71.8539L271.108 95.5H256.246L280.413 62.2825L281.049 61.4076L280.42 60.5275L257.517 28.5H272.225L287.876 50.5678L289.112 52.3091L290.331 50.5569L305.684 28.5H319.467L296.784 59.922L296.15 60.7995L296.783 61.6773L321.169 95.5H306.184L289.731 71.8436L288.489 70.057L287.261 71.8539Z" stroke="white" stroke-width="3"/>
</svg>
